<?xml version="1.0" standalone="no"?>
<!DOCTYPE svg PUBLIC "-//W3C//DTD SVG 20010904//EN"
 "http://www.w3.org/TR/2001/REC-SVG-20010904/DTD/svg10.dtd">
<svg version="1.0" xmlns="http://www.w3.org/2000/svg"
 width="360.000000pt" height="363.000000pt" viewBox="0 0 360.000000 363.000000"
 preserveAspectRatio="xMidYMid meet">

<g transform="translate(0.000000,363.000000) scale(0.100000,-0.100000)"
fill="#000000" stroke="none">
<path d="M0 1815 l0 -1815 1800 0 1800 0 0 1815 0 1815 -1800 0 -1800 0 0
-1815z m2458 1338 l632 -6 0 -504 0 -503 -370 0 -370 0 0 -890 0 -890 -160 0
-160 0 0 1045 0 1045 370 0 370 0 0 195 0 195 -954 0 c-900 0 -954 -1 -958
-17 -2 -10 -2 -98 0 -195 l4 -178 384 0 384 0 0 -1045 0 -1045 -154 0 -153 0
-8 163 c-4 89 -6 470 -5 847 1 377 2 704 1 728 l-1 42 -380 0 -380 0 0 505 0
505 318 3 c794 6 998 7 1590 0z"/>
</g>
</svg>
