<?xml version="1.0" standalone="no"?>
<!DOCTYPE svg PUBLIC "-//W3C//DTD SVG 20010904//EN"
 "http://www.w3.org/TR/2001/REC-SVG-20010904/DTD/svg10.dtd">
<svg version="1.0" xmlns="http://www.w3.org/2000/svg"
 width="482.000000pt" height="603.000000pt" viewBox="0 0 482.000000 603.000000"
 preserveAspectRatio="xMidYMid meet">

<g transform="translate(0.000000,603.000000) scale(0.100000,-0.100000)"
fill="#000000" stroke="none">
<path d="M537 5765 c-42 -16 -118 -83 -148 -132 -20 -32 -21 -47 -20 -399 1
-392 3 -403 53 -438 l22 -16 -21 0 c-26 0 -63 49 -68 88 -2 15 -4 125 -5 244
-1 157 -5 218 -13 222 -9 3 -8 7 2 14 9 6 10 12 3 16 -6 4 -9 12 -6 20 3 9 -5
13 -26 13 -23 0 -30 -4 -28 -16 2 -9 11 -15 21 -13 14 2 17 -5 15 -43 -1 -34
-5 -45 -15 -41 -7 3 -13 1 -13 -4 0 -5 -7 -7 -16 -3 -14 5 -16 17 -11 68 5 65
-3 93 -22 81 -7 -5 -7 -15 2 -33 9 -21 9 -27 -1 -31 -9 -3 -12 -58 -11 -230 0
-125 3 -221 6 -214 7 19 80 15 87 -5 8 -21 -8 -31 -40 -25 -14 2 -24 0 -24 -7
0 -6 6 -11 13 -11 8 0 7 -3 -3 -9 -18 -12 -31 -5 -24 13 3 8 0 17 -7 22 -9 5
-11 -12 -6 -77 5 -70 9 -86 28 -102 12 -9 20 -20 17 -22 -10 -10 -48 37 -59
72 -7 23 -14 149 -19 323 l-6 285 -3 -250 c-5 -332 -4 -341 26 -403 49 -103
127 -132 357 -132 88 0 157 -2 155 -4 -4 -5 -139 -13 -228 -15 -24 -1 -42 -4
-38 -7 9 -9 130 -19 164 -13 4 1 22 1 38 0 21 -1 26 -4 17 -10 -20 -12 9 -21
71 -21 28 0 65 -5 84 -12 36 -13 43 -10 46 21 1 12 6 20 12 18 9 -3 12 -19 18
-89 2 -22 7 -28 25 -28 13 0 22 6 22 15 0 20 17 19 29 -2 6 -10 11 -14 11 -9
0 5 9 1 20 -9 12 -10 20 -13 20 -6 0 8 16 9 56 5 47 -6 59 -4 69 10 11 14 14
15 25 1 7 -8 9 -15 5 -15 -5 0 0 -9 10 -20 10 -11 26 -20 37 -20 10 0 18 -7
18 -15 0 -12 5 -13 27 -4 15 5 29 6 32 1 3 -5 15 -14 26 -19 10 -6 24 -26 31
-45 10 -28 15 -33 40 -30 26 2 31 -2 44 -35 8 -21 13 -43 12 -50 -2 -8 8 -10
32 -6 32 5 34 3 41 -26 5 -24 12 -31 30 -31 18 0 23 -4 19 -15 -8 -19 13 -45
36 -45 15 0 30 -23 34 -55 1 -5 5 -16 9 -22 5 -7 10 -23 12 -35 3 -12 10 -25
17 -30 20 -12 23 23 4 37 -22 17 -20 34 4 28 11 -3 21 -13 21 -22 2 -26 8
-270 8 -345 1 -38 3 -67 6 -65 2 3 5 67 6 144 0 82 4 132 9 124 5 -7 9 -626
10 -1374 1 -1612 3 -1744 31 -1800 29 -57 105 -108 209 -139 73 -23 264 -46
370 -46 102 0 255 24 324 51 101 40 188 115 233 202 l28 52 -4 1195 c-3 1022
8 2779 17 2550 3 -100 6 -106 37 -86 26 17 39 9 24 -14 -13 -22 -11 -30 6 -24
8 4 15 18 16 33 0 26 0 26 9 3 12 -30 37 -38 58 -19 11 10 43 17 87 19 l70 4
3 33 c3 32 5 33 45 30 65 -3 75 -1 96 22 23 25 54 19 44 -7 -4 -12 -2 -15 8
-12 8 3 14 11 14 19 0 23 17 29 89 29 38 0 66 3 63 7 -4 3 -21 6 -39 6 -24 -1
-28 1 -14 6 10 4 31 5 46 3 41 -6 32 -34 -11 -39 -98 -9 -120 -15 -115 -30 3
-8 6 -17 6 -19 0 -2 18 -4 40 -4 30 0 40 4 40 16 0 12 9 15 37 12 29 -2 38 1
38 13 0 18 28 49 45 49 6 0 8 -4 5 -10 -3 -5 -1 -10 4 -10 18 0 26 5 23 13 -1
4 4 7 12 7 8 0 16 -5 18 -11 2 -6 14 -5 33 5 34 18 80 21 70 6 -10 -16 15 -12
31 5 14 13 8 15 -50 15 -36 0 -66 4 -66 9 0 6 66 9 158 8 107 -1 163 2 177 10
17 11 10 13 -45 14 l-65 1 45 9 c25 4 61 11 80 15 34 6 34 6 11 18 -20 11 -21
14 -7 19 10 4 14 12 10 18 -7 12 54 7 75 -5 7 -5 8 -1 4 9 -5 13 0 16 23 14
44 -3 66 0 60 10 -3 4 6 6 19 3 14 -2 25 0 25 6 0 6 10 12 23 14 19 4 17 6
-13 15 -33 11 -32 11 30 12 61 1 63 0 40 -13 -49 -27 -186 -93 -232 -112 -27
-10 -48 -22 -48 -26 0 -23 298 121 351 169 79 72 80 73 82 431 2 312 2 318
-21 364 -30 60 -109 133 -178 164 l-55 24 -1887 -1 c-1577 0 -1893 -3 -1925
-14z m1776 -12 c-7 -2 -19 -2 -25 0 -7 3 -2 5 12 5 14 0 19 -2 13 -5z m237
-63 c0 -5 -5 -10 -11 -10 -5 0 -7 5 -4 10 3 6 8 10 11 10 2 0 4 -4 4 -10z
m1103 3 c-13 -2 -33 -2 -45 0 -13 2 -3 4 22 4 25 0 35 -2 23 -4z m-660 -40
c-7 -2 -19 -2 -25 0 -7 3 -2 5 12 5 14 0 19 -2 13 -5z m-2073 -17 c0 -14 -29
-31 -38 -21 -6 6 18 35 29 35 5 0 9 -6 9 -14z m1590 4 c0 -5 -5 -10 -11 -10
-5 0 -7 5 -4 10 3 6 8 10 11 10 2 0 4 -4 4 -10z m272 -26 c-5 -24 -8 -27 -20
-20 -14 8 -2 48 12 43 6 -2 9 -13 8 -23z m1316 9 c-10 -2 -28 -2 -40 0 -13 2
-5 4 17 4 22 1 32 -1 23 -4z m-1991 -68 c-2 -31 -7 -59 -11 -62 -8 -8 -8 80 0
101 12 30 16 16 11 -39z m1893 45 c0 -24 -173 -82 -280 -95 -108 -12 -121 -16
-115 -35 3 -9 1 -28 -4 -41 -8 -23 -17 -29 -81 -57 -32 -14 -130 -31 -198 -34
-62 -2 -72 7 -71 67 1 39 1 39 9 11 5 -16 7 -34 3 -39 -11 -18 19 -25 86 -20
81 5 132 17 193 45 43 19 46 23 45 54 -1 22 -7 34 -17 35 -8 0 46 11 121 24
138 24 230 51 271 79 26 18 38 20 38 6z m-2007 -7 c-7 -2 -19 -2 -25 0 -7 3
-2 5 12 5 14 0 19 -2 13 -5z m1067 -3 c0 -12 5 -11 -90 -14 -84 -3 -116 6 -55
15 67 10 145 10 145 -1z m197 4 c-3 -3 -12 -4 -19 -1 -8 3 -5 6 6 6 11 1 17
-2 13 -5z m-2184 -54 c40 -10 61 -19 47 -19 -55 -2 -170 39 -170 61 0 6 11 3
25 -6 14 -10 58 -25 98 -36z m367 0 c0 -5 -7 -7 -15 -4 -8 4 -15 8 -15 10 0 2
7 4 15 4 8 0 15 -4 15 -10z m25 -20 c3 -5 1 -10 -4 -10 -6 0 -11 5 -11 10 0 6
2 10 4 10 3 0 8 -4 11 -10z m1159 -6 c9 -23 7 -44 -3 -44 -5 0 -11 14 -13 30
-5 32 6 41 16 14z m-1401 -1 c-13 -2 -35 -2 -50 0 -16 2 -5 4 22 4 28 0 40 -2
28 -4z m1143 -73 c8 -8 22 -15 31 -15 9 0 18 -6 21 -14 4 -11 -2 -12 -24 -7
-16 4 -33 8 -39 9 -12 2 -23 40 -23 82 0 30 0 30 10 -5 5 -19 16 -42 24 -50z
m-876 60 c0 -5 -5 -10 -11 -10 -5 0 -7 5 -4 10 3 6 8 10 11 10 2 0 4 -4 4 -10z
m-863 -87 c-3 -10 -5 -2 -5 17 0 19 2 27 5 18 2 -10 2 -26 0 -35z m2013 27 c0
-5 -4 -10 -10 -10 -5 0 -10 5 -10 10 0 6 5 10 10 10 6 0 10 -4 10 -10z m297
-12 c-3 -8 -6 -5 -6 6 -1 11 2 17 5 13 3 -3 4 -12 1 -19z m-1667 -9 c0 -6 -4
-7 -10 -4 -5 3 -10 11 -10 16 0 6 5 7 10 4 6 -3 10 -11 10 -16z m1270 -6 c21
5 53 -11 45 -23 -3 -4 -24 -6 -48 -2 -23 3 -57 5 -74 5 -40 -2 -41 2 -6 21 20
10 33 11 46 4 11 -5 27 -8 37 -5z m80 -24 c0 -6 -4 -7 -10 -4 -5 3 -10 11 -10
16 0 6 5 7 10 4 6 -3 10 -11 10 -16z m368 -19 c4 1 18 7 32 15 35 20 47 18 61
-6 8 -15 8 -24 0 -28 -5 -4 -9 -16 -8 -28 0 -12 5 -19 9 -17 4 3 8 0 8 -6 0
-6 4 -9 9 -5 5 3 12 1 16 -5 6 -10 -6 -14 -37 -11 -11 1 -20 -7 -23 -22 -4
-16 -16 -27 -30 -29 -18 -4 -22 -1 -18 11 5 14 3 13 -12 -1 -11 -10 -16 -20
-13 -23 5 -6 301 9 396 20 23 2 42 1 42 -4 0 -4 -44 -11 -97 -15 -54 -4 -127
-11 -163 -17 -36 -5 -72 -9 -80 -9 -50 -2 -100 -13 -100 -21 0 -6 9 -8 20 -4
11 3 28 2 37 -4 17 -10 17 -10 -2 -12 -11 -1 -28 -1 -37 0 -10 1 -18 -3 -18
-8 0 -6 9 -11 19 -11 11 0 22 -4 26 -9 3 -6 -7 -8 -22 -7 -16 2 -34 4 -42 5
-9 1 -12 9 -9 26 3 13 2 22 -2 20 -4 -3 -10 -23 -14 -45 -4 -23 -11 -38 -16
-35 -6 3 -10 -2 -10 -12 1 -15 5 -13 23 10 25 30 37 34 37 12 0 -8 5 -15 11
-15 5 0 7 -4 4 -10 -3 -5 -15 -10 -26 -10 -10 0 -19 -4 -19 -10 0 -5 8 -10 18
-10 32 0 136 21 156 31 28 16 234 49 291 48 44 -1 41 -3 -25 -10 -89 -10 -191
-29 -205 -39 -5 -4 -32 -13 -60 -20 -27 -7 -54 -17 -59 -21 -6 -5 -27 -9 -48
-9 -27 0 -38 -4 -38 -15 0 -18 19 -19 57 -3 15 6 46 12 68 14 36 2 37 1 12 -6
-16 -5 -35 -14 -42 -20 -8 -7 -19 -9 -25 -5 -6 4 -17 2 -25 -5 -8 -6 -26 -10
-42 -9 -15 1 -39 1 -53 0 -25 -3 -25 -3 5 -16 29 -14 30 -14 5 -15 -31 -2 -57
-7 -78 -15 -14 -5 -14 -8 -3 -15 11 -6 14 -36 12 -137 -3 -163 -10 -316 -16
-321 -7 -7 -55 27 -55 38 0 6 7 10 15 10 8 0 15 -5 15 -12 0 -6 3 -8 6 -5 4 4
8 60 10 125 3 98 1 122 -11 132 -12 10 -15 10 -15 -3 0 -8 -7 -17 -15 -21 -8
-3 -15 -9 -14 -13 1 -4 0 -10 -1 -13 -1 -3 -4 -18 -6 -35 -7 -41 -14 -45 -14
-6 0 18 -4 30 -9 27 -5 -4 -5 -22 0 -43 12 -53 11 -136 -1 -128 -5 3 -10 13
-10 21 0 19 -27 47 -34 36 -8 -13 5 -53 15 -46 5 3 9 -2 9 -10 0 -9 -4 -16
-10 -16 -5 0 -13 -18 -16 -40 -4 -23 -11 -37 -17 -33 -9 5 -5 89 9 172 3 21 2
31 -4 27 -6 -3 -13 0 -15 6 -7 17 -10 -67 -11 -282 -1 -146 1 -176 14 -181 11
-5 9 -9 -9 -18 -12 -7 -25 -10 -28 -7 -3 3 -5 40 -4 82 1 54 -2 80 -11 85 -10
7 -10 9 0 9 9 0 12 33 12 132 0 72 -3 128 -7 125 -3 -4 -11 -1 -17 6 -13 16
-70 0 -72 -20 -1 -7 -2 -25 -3 -40 -2 -26 -3 -26 -11 -7 -4 11 -8 37 -8 57 0
30 4 37 19 37 10 0 19 5 19 11 0 11 -37 3 -57 -13 -8 -6 -10 -4 -8 9 2 10 4
24 4 32 1 11 4 11 16 1 9 -7 19 -10 23 -6 4 4 -1 12 -11 17 -13 8 -16 17 -11
32 6 20 5 20 -10 8 -9 -8 -18 -12 -21 -10 -10 11 23 54 55 72 19 10 39 25 45
32 5 7 17 15 25 18 10 4 8 6 -7 6 -12 1 -23 6 -25 13 -3 7 -13 2 -26 -12 -25
-27 -30 -15 -6 18 8 12 22 22 31 22 10 0 14 6 10 20 -3 11 -1 23 4 26 6 3 5
12 -3 22 -10 12 -10 14 0 8 7 -4 12 -2 12 4 0 8 10 10 28 6 20 -5 23 -4 12 4
-13 8 -13 11 -1 19 8 5 10 14 6 22 -6 9 -3 11 8 6 13 -5 17 -1 17 16 0 12 7
33 16 46 9 13 13 26 8 30 -5 3 -15 19 -22 35 -10 22 -10 31 -1 36 6 4 8 13 4
19 -10 17 -36 -6 -28 -25 3 -8 0 -14 -5 -14 -6 0 -13 8 -16 18 -3 10 -21 22
-39 27 -43 13 -36 31 11 27 36 -3 36 -3 18 17 -13 15 -23 18 -31 11 -13 -11
-25 -3 -25 16 0 7 8 10 20 7 14 -4 20 0 20 10 0 30 50 43 158 40 100 -3 114 1
90 25 -9 9 -9 12 0 12 7 0 12 -3 12 -7 0 -5 4 -15 9 -22 8 -12 13 -11 30 10
16 19 20 20 21 7 0 -9 -6 -19 -12 -22 -7 -3 -2 -3 12 0 14 4 25 7 25 8 0 0 6
11 13 23 6 13 13 35 13 50 2 24 2 25 6 6 2 -13 7 -23 11 -23z m-1698 14 c0 -8
-4 -12 -10 -9 -5 3 -10 10 -10 16 0 5 5 9 10 9 6 0 10 -7 10 -16z m198 -46
c30 -5 52 -11 50 -13 -6 -6 -187 21 -195 29 -8 8 57 1 145 -16z m1695 5 c-7
-2 -21 -2 -30 0 -10 3 -4 5 12 5 17 0 24 -2 18 -5z m-1508 -35 c36 -6 65 -16
65 -21 0 -5 -7 -7 -15 -4 -8 4 -42 11 -77 18 -69 12 -129 33 -70 24 18 -2 61
-10 97 -17z m776 -41 c-8 -8 -11 0 -10 29 1 39 1 39 11 11 7 -21 7 -32 -1 -40z
m746 27 c-3 -3 -12 -4 -19 -1 -8 3 -5 6 6 6 11 1 17 -2 13 -5z m-1322 -39 c45
-20 18 -17 -55 5 -57 17 -60 19 -20 14 25 -4 59 -12 75 -19z m1265 0 c-14 -16
-50 -21 -50 -6 0 9 20 17 49 20 11 1 11 -2 1 -14z m-2841 -42 c0 9 5 17 10 17
17 0 23 -19 16 -49 -5 -23 -10 -28 -28 -24 -43 9 -48 13 -40 25 4 7 6 21 5 31
-2 9 2 17 7 17 6 0 12 8 12 18 1 9 5 1 9 -18 4 -19 8 -27 9 -17z m21 37 c0 -5
-5 -10 -11 -10 -5 0 -7 5 -4 10 3 6 8 10 11 10 2 0 4 -4 4 -10z m1732 -26 c4
-3 8 -9 8 -14 0 -11 -63 -1 -110 17 -34 13 -33 13 30 7 35 -3 68 -8 72 -10z
m458 -24 c-34 -11 -60 -11 -35 0 11 5 29 8 40 8 16 0 15 -2 -5 -8z m30 -20 c0
-5 -10 -10 -22 -10 -19 0 -20 2 -8 10 19 13 30 13 30 0z m612 -62 c-2 -10 -8
-18 -13 -18 -11 0 -12 31 -2 56 6 16 7 16 13 -2 4 -10 5 -27 2 -36z m-1182 21
c0 -5 -4 -9 -10 -9 -5 0 -10 7 -10 16 0 8 5 12 10 9 6 -3 10 -10 10 -16z m650
1 c0 -12 -55 -41 -63 -33 -5 4 21 22 61 42 1 0 2 -3 2 -9z m-2291 -38 c0 -20
-3 -30 -6 -22 -4 8 -15 21 -25 28 -22 16 -18 27 11 29 18 2 21 -4 20 -35z
m1978 32 c-3 -3 -12 -4 -19 -1 -8 3 -5 6 6 6 11 1 17 -2 13 -5z m1510 -9 c2
-6 -59 -11 -167 -12 -94 -1 -170 2 -170 7 0 4 50 9 112 9 61 1 114 4 117 7 9
9 104 -1 108 -11z m-2100 -8 c16 -25 143 -97 173 -97 9 0 25 -6 35 -14 10 -7
27 -11 37 -8 10 2 18 -1 18 -8 0 -22 -80 -3 -187 46 -17 8 -36 14 -42 14 -6 0
-15 9 -21 20 -6 11 -17 20 -24 20 -8 0 -16 6 -19 14 -10 25 16 36 30 13z m416
-4 c-7 -2 -19 -2 -25 0 -7 3 -2 5 12 5 14 0 19 -2 13 -5z m2187 -23 c0 -14
-14 -12 -28 2 -19 19 -14 30 8 18 11 -6 20 -15 20 -20z m-3037 6 c86 0 157 -4
157 -8 0 -5 -76 -8 -170 -6 -128 2 -172 6 -182 17 -11 12 -9 12 12 5 14 -5 96
-9 183 -8z m907 10 c0 -11 -19 -15 -25 -6 -3 5 1 10 9 10 9 0 16 -2 16 -4z
m856 -31 c1 -8 -2 -15 -7 -15 -5 0 -9 10 -9 22 0 23 12 17 16 -7z m-2762 -1
c3 -8 2 -12 -4 -9 -6 3 -10 -1 -10 -9 0 -8 7 -19 16 -24 14 -8 13 -10 -5 -15
-11 -3 -24 -1 -27 4 -3 5 -1 9 4 9 5 0 7 14 4 30 -4 31 11 42 22 14z m756 12
c0 -2 -7 -7 -16 -10 -8 -3 -12 -2 -9 4 6 10 25 14 25 6z m1554 -5 c8 -12 -38
-23 -59 -15 -13 5 -14 8 -3 15 17 11 55 11 62 0z m-130 -16 c-4 -8 -11 -12
-16 -9 -6 4 -5 10 3 15 19 12 19 11 13 -6z m36 5 c0 -5 -5 -10 -11 -10 -5 0
-7 5 -4 10 3 6 8 10 11 10 2 0 4 -4 4 -10z m515 0 c3 -5 1 -10 -4 -10 -6 0
-11 5 -11 10 0 6 2 10 4 10 3 0 8 -4 11 -10z m-790 -10 c3 -5 -1 -10 -10 -10
-9 0 -13 5 -10 10 3 6 8 10 10 10 2 0 7 -4 10 -10z m110 -10 c-3 -5 -22 -10
-41 -10 -21 0 -33 4 -29 10 3 6 22 10 41 10 21 0 33 -4 29 -10z m62 4 c-3 -3
-12 -4 -19 -1 -8 3 -5 6 6 6 11 1 17 -2 13 -5z m846 -1 c-7 -2 -21 -2 -30 0
-10 3 -4 5 12 5 17 0 24 -2 18 -5z m-2915 -66 c-2 -16 -11 -23 -33 -25 -22 -2
-26 0 -15 7 8 5 18 7 22 5 4 -3 8 12 8 33 1 31 3 35 11 20 6 -10 9 -28 7 -40z
m3752 8 c24 -25 41 -45 38 -45 -4 0 -27 20 -52 45 -26 25 -43 45 -38 45 4 0
28 -20 52 -45z m-1875 18 c-4 -10 -10 -56 -13 -103 -3 -56 -8 -76 -12 -60 -4
14 -3 52 1 85 4 33 8 68 8 78 1 9 6 17 12 17 7 0 8 -7 4 -17z m216 -90 c0 -60
0 -136 -1 -170 -1 -35 3 -63 8 -63 6 0 5 -10 -1 -25 -7 -14 -18 -23 -25 -20
-8 3 -18 5 -23 5 -6 0 -7 5 -4 10 4 6 10 8 14 5 15 -9 19 48 15 208 -3 103 -1
157 6 157 6 0 10 -41 11 -107z m902 38 c3 -14 1 -18 -9 -14 -8 3 -14 11 -14
19 0 21 17 17 23 -5z m-307 -13 c8 -9 -34 -21 -46 -13 -6 4 -8 10 -6 14 6 9
42 8 52 -1z m-2302 -33 c6 -6 20 -16 31 -23 20 -11 20 -11 -2 -12 -23 0 -54
34 -52 60 0 13 1 13 6 0 4 -8 11 -20 17 -25z m2486 -4 c52 -7 29 -9 -112 -10
-137 -1 -178 2 -178 12 0 13 172 12 290 -2z m-1050 -9 c0 -4 -36 -8 -80 -9
-50 -2 -78 1 -75 7 7 12 155 14 155 2z m750 -284 c0 -160 -3 -288 -7 -284 -8
8 -14 556 -6 569 2 4 6 7 9 7 2 0 4 -131 4 -292z m407 286 c-3 -3 -12 -4 -19
-1 -8 3 -5 6 6 6 11 1 17 -2 13 -5z m56 -1 c-7 -2 -21 -2 -30 0 -10 3 -4 5 12
5 17 0 24 -2 18 -5z m-1656 -9 c-3 -3 -12 -4 -19 -1 -8 3 -5 6 6 6 11 1 17 -2
13 -5z m206 -1 c-29 -2 -77 -2 -105 0 -29 2 -6 3 52 3 58 0 81 -1 53 -3z m642
-3 c-3 -5 -13 -10 -21 -10 -8 0 -14 5 -14 10 0 6 9 10 21 10 11 0 17 -4 14
-10z m1753 -17 c-10 -2 -28 -2 -40 0 -13 2 -5 4 17 4 22 1 32 -1 23 -4z
m-3975 -33 c3 -11 2 -22 -3 -25 -4 -3 -10 6 -12 20 -6 30 7 34 15 5z m1809
-260 l-9 -155 -2 191 c0 105 2 194 7 198 12 12 13 -68 4 -234z m48 28 c0 -116
-2 -209 -4 -207 -4 4 -10 341 -7 397 0 12 3 22 6 22 3 0 5 -95 5 -212z m-1890
194 c0 -8 -37 -42 -45 -42 -3 0 -5 9 -5 20 0 13 5 18 15 14 8 -4 15 -1 15 5 0
6 5 11 10 11 6 0 10 -3 10 -8z m2968 1 c-10 -2 -26 -2 -35 0 -10 3 -2 5 17 5
19 0 27 -2 18 -5z m457 -5 c2 -2 -17 -5 -43 -6 -32 -1 -42 1 -32 8 14 8 66 8
75 -2z m-1163 -20 c-7 -7 -12 -8 -12 -2 0 6 3 14 7 17 3 4 9 5 12 2 2 -3 -1
-11 -7 -17z m1351 15 c-29 -2 -78 -2 -110 0 -32 2 -8 3 52 3 61 0 87 -1 58 -3z
m-2420 -10 c-7 -2 -19 -2 -25 0 -7 3 -2 5 12 5 14 0 19 -2 13 -5z m2795 -7 c8
-9 -77 -6 -128 4 -36 7 -29 8 39 5 46 -2 86 -6 89 -9z m-1784 -11 c3 -8 1 -15
-4 -15 -6 0 -10 7 -10 15 0 8 2 15 4 15 2 0 6 -7 10 -15z m1823 9 c-3 -3 -12
-4 -19 -1 -8 3 -5 6 6 6 11 1 17 -2 13 -5z m-3990 -40 c-3 -3 -12 -4 -19 -1
-8 3 -5 6 6 6 11 1 17 -2 13 -5z m3760 -60 c-3 -3 -12 -4 -19 -1 -8 3 -5 6 6
6 11 1 17 -2 13 -5z m-1607 -20 c0 -2 -11 -4 -25 -4 -14 0 -25 4 -25 9 0 4 11
6 25 3 14 -2 25 -6 25 -8z m-117 -21 c-7 -2 -19 -2 -25 0 -7 3 -2 5 12 5 14 0
19 -2 13 -5z m47 -118 c0 -67 -4 -105 -11 -105 -6 0 -9 37 -8 105 1 58 6 105
11 105 4 0 8 -47 8 -105z m1133 78 c-7 -2 -19 -2 -25 0 -7 3 -2 5 12 5 14 0
19 -2 13 -5z m75 0 c-10 -2 -26 -2 -35 0 -10 3 -2 5 17 5 19 0 27 -2 18 -5z
m147 -3 c7 -12 -22 -12 -50 0 -17 7 -15 9 12 9 17 1 35 -3 38 -9z m-2942 -7
c-13 -2 -35 -2 -50 0 -16 2 -5 4 22 4 28 0 40 -2 28 -4z m135 0 c-10 -2 -28
-2 -40 0 -13 2 -5 4 17 4 22 1 32 -1 23 -4z m59 1 c-3 -3 -12 -4 -19 -1 -8 3
-5 6 6 6 11 1 17 -2 13 -5z m150 0 c-3 -3 -12 -4 -19 -1 -8 3 -5 6 6 6 11 1
17 -2 13 -5z m1296 -24 c-3 -11 -7 -20 -9 -20 -2 0 -4 9 -4 20 0 11 4 20 9 20
5 0 7 -9 4 -20z m894 -6 c-3 -3 -12 -4 -19 -1 -8 3 -5 6 6 6 11 1 17 -2 13 -5z
m156 -1 c-7 -2 -19 -2 -25 0 -7 3 -2 5 12 5 14 0 19 -2 13 -5z m-2718 -13 c4
-6 -16 -10 -52 -10 -41 0 -54 3 -43 10 20 13 87 13 95 0z m1483 -554 c-4 -5
-11 -7 -14 -3 -9 9 -5 522 4 544 4 10 9 -106 12 -257 3 -151 2 -279 -2 -284z
m189 483 c2 -12 -1 -18 -7 -14 -5 3 -10 16 -10 27 0 26 13 16 17 -13z m-1437
11 c0 -5 -2 -10 -4 -10 -3 0 -8 5 -11 10 -3 6 -1 10 4 10 6 0 11 -4 11 -10z
m2215 -10 c-3 -5 -10 -10 -16 -10 -5 0 -9 5 -9 10 0 6 7 10 16 10 8 0 12 -4 9
-10z m-475 -10 c0 -5 -7 -10 -16 -10 -8 0 -12 5 -9 10 3 6 10 10 16 10 5 0 9
-4 9 -10z m307 -6 c-3 -3 -12 -4 -19 -1 -8 3 -5 6 6 6 11 1 17 -2 13 -5z
m-1822 -54 c3 -5 1 -10 -4 -10 -6 0 -11 5 -11 10 0 6 2 10 4 10 3 0 8 -4 11
-10z m59 -5 c3 -9 0 -15 -9 -15 -8 0 -15 7 -15 15 0 8 4 15 9 15 5 0 11 -7 15
-15z m916 5 c8 -5 11 -10 5 -10 -5 0 -17 5 -25 10 -8 5 -10 10 -5 10 6 0 17
-5 25 -10z m235 1 c3 -5 2 -12 -3 -15 -5 -3 -9 1 -9 9 0 17 3 19 12 6z m223
-71 c-2 -38 -6 -70 -10 -70 -10 0 -13 27 -10 86 6 80 23 65 20 -16z m159 48
c-3 -8 -6 -5 -6 6 -1 11 2 17 5 13 3 -3 4 -12 1 -19z m-670 -25 c-3 -10 -5 -4
-5 12 0 17 2 24 5 18 2 -7 2 -21 0 -30z m58 7 c3 -5 -3 -10 -14 -10 -12 0 -21
5 -21 10 0 6 6 10 14 10 8 0 18 -4 21 -10z m166 -43 c-8 -8 -11 -8 -11 1 0 7
-8 13 -17 13 -17 1 -17 2 0 6 9 2 17 10 17 16 0 7 5 4 11 -6 8 -14 8 -22 0
-30z m-261 -29 c0 -5 -4 -8 -10 -8 -5 0 -10 10 -10 23 0 18 2 19 10 7 5 -8 10
-18 10 -22z m395 22 c-3 -5 -13 -10 -21 -10 -8 0 -14 5 -14 10 0 6 9 10 21 10
11 0 17 -4 14 -10z m352 -52 c-2 -13 -4 -3 -4 22 0 25 2 35 4 23 2 -13 2 -33
0 -45z m-292 42 c3 -5 -1 -10 -9 -10 -9 0 -16 5 -16 10 0 6 4 10 9 10 6 0 13
-4 16 -10z m262 -98 c3 -84 -2 -116 -16 -93 -5 8 -6 41 -3 73 4 44 1 62 -8 68
-11 7 -11 11 0 24 19 24 24 13 27 -72z m-678 69 c7 -5 10 -14 7 -20 -4 -6 -2
-11 5 -11 7 0 10 -3 7 -6 -9 -8 -48 19 -48 33 0 15 9 16 29 4z m-39 -21 c0 -5
-2 -10 -4 -10 -3 0 -8 5 -11 10 -3 6 -1 10 4 10 6 0 11 -4 11 -10z m257 -97
c-2 -16 -4 -3 -4 27 0 30 2 43 4 28 2 -16 2 -40 0 -55z m490 -185 c-1 -51 -3
-12 -3 87 0 99 2 141 3 93 2 -48 2 -129 0 -180z m-197 231 c0 -5 -4 -9 -10 -9
-5 0 -10 7 -10 16 0 8 5 12 10 9 6 -3 10 -10 10 -16z m-75 -80 c-4 -5 -16 -9
-28 -9 -21 1 -21 1 -3 15 20 15 41 11 31 -6z m-971 -15 c3 -8 2 -12 -4 -9 -6
3 -10 10 -10 16 0 14 7 11 14 -7z m897 0 c12 -14 11 -16 -5 -13 -11 2 -21 10
-24 17 -5 17 13 15 29 -4z m-824 -61 c-3 -10 -5 -2 -5 17 0 19 2 27 5 18 2
-10 2 -26 0 -35z m680 10 c-3 -10 -5 -4 -5 12 0 17 2 24 5 18 2 -7 2 -21 0
-30z m200 -20 c-3 -10 -5 -2 -5 17 0 19 2 27 5 18 2 -10 2 -26 0 -35z m52 -91
c1 -51 -3 -91 -8 -88 -4 3 -8 54 -8 113 -1 65 3 100 8 88 4 -11 8 -62 8 -113z
m-252 -9 c-2 -16 -4 -3 -4 27 0 30 2 43 4 28 2 -16 2 -40 0 -55z m200 25 c-3
-7 -5 -2 -5 12 0 14 2 19 5 13 2 -7 2 -19 0 -25z m-367 -2 c0 -9 -30 -14 -35
-6 -4 6 3 10 14 10 12 0 21 -2 21 -4z m70 -6 c0 -5 -5 -10 -11 -10 -5 0 -7 5
-4 10 3 6 8 10 11 10 2 0 4 -4 4 -10z m510 -45 c11 -13 8 -13 -21 -3 -44 15
-48 18 -17 18 14 0 31 -7 38 -15z m77 -168 c-2 -23 -3 -1 -3 48 0 50 1 68 3
42 2 -26 2 -67 0 -90z m-237 -18 c0 -66 -4 -118 -9 -115 -4 3 -7 52 -5 108 3
131 3 128 9 128 3 0 5 -54 5 -121z m-313 -11 c-3 -7 -5 -2 -5 12 0 14 2 19 5
13 2 -7 2 -19 0 -25z m187 -23 c3 -8 1 -15 -4 -15 -6 0 -10 7 -10 15 0 8 2 15
4 15 2 0 6 -7 10 -15z m196 -22 c0 -7 -4 -13 -10 -13 -5 0 -10 12 -10 28 0 21
2 24 10 12 5 -8 10 -21 10 -27z m-313 -5 c-3 -8 -6 -5 -6 6 -1 11 2 17 5 13 3
-3 4 -12 1 -19z m246 -89 c4 -16 3 -18 -9 -8 -7 6 -11 15 -8 20 8 13 11 11 17
-12z m67 -49 c0 -5 -5 -10 -11 -10 -5 0 -7 5 -4 10 3 6 8 10 11 10 2 0 4 -4 4
-10z m47 -102 c-3 -8 -6 -5 -6 6 -1 11 2 17 5 13 3 -3 4 -12 1 -19z m50 -134
c-3 -3 -12 -4 -19 -1 -8 3 -5 6 6 6 11 1 17 -2 13 -5z"/>
<path d="M2670 5270 c-8 -5 -10 -10 -5 -10 6 0 17 5 25 10 8 5 11 10 5 10 -5
0 -17 -5 -25 -10z"/>
<path d="M2735 5270 c-3 -5 3 -10 15 -10 12 0 18 5 15 10 -3 6 -10 10 -15 10
-5 0 -12 -4 -15 -10z"/>
<path d="M2700 5260 c-9 -6 -10 -10 -3 -10 6 0 15 5 18 10 8 12 4 12 -15 0z"/>
<path d="M2750 5240 c-8 -5 -11 -12 -7 -16 4 -4 15 0 24 9 18 18 8 23 -17 7z"/>
<path d="M2700 5210 c0 -10 8 -23 18 -29 15 -9 14 -11 -9 -19 -22 -9 -25 -15
-21 -40 2 -17 11 -33 19 -36 8 -3 11 -1 8 4 -3 6 -2 10 3 10 14 0 33 -26 25
-33 -3 -4 -1 -7 6 -7 13 0 4 53 -11 58 -16 7 -8 23 10 20 11 -2 17 4 18 17 2
41 4 44 22 38 14 -5 15 -3 5 7 -10 11 -15 11 -27 0 -20 -16 -50 -5 -42 15 3 9
0 15 -9 15 -8 0 -15 -9 -15 -20z"/>
<path d="M2838 5223 c7 -3 16 -2 19 1 4 3 -2 6 -13 5 -11 0 -14 -3 -6 -6z"/>
<path d="M2656 5204 c-5 -14 -4 -15 9 -4 17 14 19 20 6 20 -5 0 -12 -7 -15
-16z"/>
<path d="M2820 5196 c0 -2 7 -9 15 -16 12 -10 15 -10 15 4 0 9 -7 16 -15 16
-8 0 -15 -2 -15 -4z"/>
<path d="M2860 5173 c0 -5 4 -14 9 -21 7 -11 9 -11 14 1 3 8 3 18 0 21 -9 8
-23 7 -23 -1z"/>
<path d="M2810 5160 c0 -5 10 -10 23 -10 18 0 19 2 7 10 -19 13 -30 13 -30 0z"/>
<path d="M2787 5136 c-4 -11 -5 -21 -2 -24 3 -3 5 0 5 7 0 7 4 10 9 6 5 -3 13
0 17 6 4 7 3 9 -4 5 -5 -3 -12 -1 -14 6 -3 7 -7 5 -11 -6z"/>
<path d="M2710 5052 c0 -10 -7 -28 -16 -40 -14 -20 -14 -22 3 -22 15 0 20 9
21 40 2 22 0 40 -3 40 -3 0 -5 -8 -5 -18z"/>
<path d="M2875 5041 c-3 -6 4 -9 15 -8 11 1 20 5 20 9 0 11 -28 10 -35 -1z"/>
<path d="M2775 5029 c-4 -6 -5 -12 -2 -15 2 -3 7 2 10 11 7 17 1 20 -8 4z"/>
<path d="M2900 5003 c-28 -11 -49 -39 -39 -54 8 -12 10 -12 18 1 5 8 7 18 5
22 -3 4 4 8 15 8 28 0 52 11 45 21 -6 10 -21 10 -44 2z"/>
<path d="M2831 4954 c0 -11 3 -14 6 -6 3 7 2 16 -1 19 -3 4 -6 -2 -5 -13z"/>
<path d="M2816 4895 c-3 -8 -1 -15 4 -15 6 0 10 7 10 15 0 8 -2 15 -4 15 -2 0
-6 -7 -10 -15z"/>
<path d="M2750 4864 c0 -8 5 -12 10 -9 6 4 8 11 5 16 -9 14 -15 11 -15 -7z"/>
<path d="M2626 4841 c-4 -5 -2 -12 3 -15 5 -4 12 -2 15 3 4 5 2 12 -3 15 -5 4
-12 2 -15 -3z"/>
<path d="M2780 4839 c0 -5 5 -7 10 -4 6 3 10 8 10 11 0 2 -4 4 -10 4 -5 0 -10
-5 -10 -11z"/>
<path d="M2832 4810 c0 -14 2 -19 5 -12 2 6 2 18 0 25 -3 6 -5 1 -5 -13z"/>
<path d="M2760 4804 c0 -5 -4 -26 -9 -46 -5 -21 -5 -38 -1 -38 9 0 23 80 15
88 -3 3 -5 1 -5 -4z"/>
<path d="M2610 4774 c0 -8 5 -12 10 -9 6 3 10 10 10 16 0 5 -4 9 -10 9 -5 0
-10 -7 -10 -16z"/>
<path d="M2580 4740 c0 -5 7 -7 15 -4 8 4 15 8 15 10 0 2 -7 4 -15 4 -8 0 -15
-4 -15 -10z"/>
<path d="M2702 4705 c0 -16 2 -22 5 -12 2 9 2 23 0 30 -3 6 -5 -1 -5 -18z"/>
<path d="M2673 4682 c0 -22 4 -29 10 -23 7 7 7 18 0 33 -9 20 -10 20 -10 -10z"/>
<path d="M2545 4689 c-4 -6 0 -18 9 -27 15 -15 16 -15 16 5 0 25 -15 38 -25
22z"/>
<path d="M2601 4684 c0 -11 3 -14 6 -6 3 7 2 16 -1 19 -3 4 -6 -2 -5 -13z"/>
<path d="M2718 4625 c-6 -30 -3 -43 8 -33 3 4 4 19 2 35 l-3 28 -7 -30z"/>
<path d="M2604 4628 c-3 -4 2 -8 11 -8 12 0 15 -6 10 -20 -4 -11 -2 -20 4 -20
6 0 11 13 11 28 0 28 -23 41 -36 20z"/>
<path d="M293 5540 c-11 -16 -10 -18 2 -14 8 4 15 12 15 20 0 19 -3 18 -17 -6z"/>
<path d="M242 5476 c-24 -36 -29 -55 -9 -34 17 16 40 58 35 63 -2 2 -13 -11
-26 -29z"/>
<path d="M4180 4680 c0 -5 9 -10 20 -10 11 0 20 5 20 10 0 6 -9 10 -20 10 -11
0 -20 -4 -20 -10z"/>
<path d="M420 4570 c0 -5 5 -10 11 -10 5 0 7 5 4 10 -3 6 -8 10 -11 10 -2 0
-4 -4 -4 -10z"/>
<path d="M758 4473 c7 -3 16 -2 19 1 4 3 -2 6 -13 5 -11 0 -14 -3 -6 -6z"/>
<path d="M1281 4324 c0 -11 3 -14 6 -6 3 7 2 16 -1 19 -3 4 -6 -2 -5 -13z"/>
<path d="M1555 4090 c-3 -5 1 -10 10 -10 9 0 13 5 10 10 -3 6 -8 10 -10 10 -2
0 -7 -4 -10 -10z"/>
<path d="M1596 4015 c4 -8 12 -15 20 -15 8 0 14 7 14 15 0 8 -9 15 -20 15 -13
0 -18 -5 -14 -15z"/>
<path d="M1672 3905 c0 -16 2 -22 5 -12 2 9 2 23 0 30 -3 6 -5 -1 -5 -18z"/>
<path d="M2044 466 c-23 -17 -2 -31 26 -16 24 13 25 16 6 23 -8 3 -22 0 -32
-7z"/>
<path d="M2120 451 c20 -7 21 -9 6 -10 -11 -1 -17 -3 -14 -6 2 -3 31 -1 64 4
45 7 50 9 23 10 -20 0 -52 3 -70 6 -29 4 -30 3 -9 -4z"/>
<path d="M2293 439 c14 -8 22 -8 30 0 8 8 3 11 -18 11 -26 -1 -28 -2 -12 -11z"/>
<path d="M2345 440 c-4 -6 7 -10 27 -10 25 0 29 3 18 10 -19 13 -37 13 -45 0z"/>
<path d="M2410 438 c0 -4 16 -8 35 -8 19 0 35 2 35 4 0 2 -16 6 -35 8 -19 2
-35 0 -35 -4z"/>
</g>
</svg>
